<svg width="1238" height="532" viewBox="0 0 1238 532" fill="none" xmlns="http://www.w3.org/2000/svg">
<path d="M34.6172 468.438C34.6172 457.214 43.7149 448.117 54.9394 448.117C66.1639 448.117 75.1434 457.214 75.2616 468.438" fill="#F5F6FA"/>
<path d="M54.9423 468.439C54.5879 468.439 54.3516 468.203 54.3516 467.849V457.216C54.3516 456.861 54.5879 456.625 54.9423 456.625C55.2968 456.625 55.5331 456.861 55.5331 457.216V467.849C55.4149 468.203 55.1786 468.439 54.9423 468.439Z" fill="#000022"/>
<path d="M54.9402 464.773C54.822 464.773 54.7039 464.773 54.5857 464.655L47.9692 458.984C47.7329 458.747 47.7329 458.393 47.851 458.157C48.0874 457.92 48.4418 457.92 48.6781 458.039L55.2946 463.709C55.5309 463.946 55.5309 464.3 55.2946 464.536C55.1765 464.655 55.0583 464.773 54.9402 464.773Z" fill="#000022"/>
<path d="M97.125 468.438C97.125 457.214 106.223 448.117 117.447 448.236C128.672 448.236 137.651 457.333 137.651 468.438" fill="#F5F6FA"/>
<path d="M117.442 468.439C117.088 468.439 116.852 468.203 116.852 467.849V457.216C116.852 456.861 117.088 456.625 117.442 456.625C117.797 456.625 118.033 456.861 118.033 457.216V467.849C117.915 468.203 117.679 468.439 117.442 468.439Z" fill="#000022"/>
<path d="M117.44 464.773C117.322 464.773 117.204 464.773 117.086 464.655L110.469 458.984C110.233 458.747 110.233 458.393 110.351 458.157C110.587 457.92 110.942 457.92 111.178 458.039L117.795 463.709C118.031 463.946 118.031 464.3 117.795 464.536C117.676 464.655 117.558 464.773 117.44 464.773Z" fill="#000022"/>
<path d="M927.256 79.5138C948.79 79.5138 966.246 62.0585 966.246 40.5264C966.246 18.9943 948.79 1.53906 927.256 1.53906C905.722 1.53906 888.266 18.9943 888.266 40.5264C888.266 62.0585 905.722 79.5138 927.256 79.5138Z" fill="#F5F6FA"/>
<path d="M128.547 510.735C148.123 510.735 163.993 507.033 163.993 502.465C163.993 497.898 148.123 494.195 128.547 494.195C108.971 494.195 93.1016 497.898 93.1016 502.465C93.1016 507.033 108.971 510.735 128.547 510.735Z" fill="#F5F6FA"/>
<path d="M110.476 163.038C119.81 133.974 142.495 111.527 169.434 98.0586C201.335 82.2274 238.08 80.3371 272.699 86.5987C310.153 93.2148 345.126 108.692 379.036 125.468C412.237 141.89 444.965 159.375 479.465 172.962C548.466 200.135 621.602 215.257 695.566 217.738C762.204 219.983 833.568 212.658 890.635 175.206C942.977 140.827 976.178 84.2359 993.546 25.1641C995.791 17.6029 997.681 9.92362 999.454 2.24429C999.926 -0.000435602 996.5 -0.945583 996.027 1.29914C982.085 62.97 952.193 123.932 901.269 163.156C846.21 205.687 773.783 215.493 706.2 214.312C631.291 213.012 557.209 198.717 487.263 172.016C451.818 158.548 418.38 141.063 384.471 124.05C351.388 107.51 317.242 92.0333 280.851 84.354C247.65 77.3835 211.968 76.911 179.949 89.316C153.601 99.4764 129.498 117.67 115.438 142.599C112.012 148.742 109.176 155.122 107.049 161.856C106.34 164.219 109.767 165.164 110.476 163.038Z" fill="#F5F6FA"/>
<path d="M616.518 434.412C617.227 434.412 617.699 433.94 617.699 433.231C617.699 432.522 617.227 432.05 616.518 432.05H605.293V427.324H616.518C617.227 427.324 617.699 426.851 617.699 426.142C617.699 425.434 617.227 424.961 616.518 424.961H520.814C520.105 424.961 519.633 425.434 519.633 426.142C519.633 426.851 520.105 427.324 520.814 427.324H532.039V432.05H520.814C520.105 432.05 519.633 432.522 519.633 433.231C519.633 433.94 520.105 434.412 520.814 434.412H532.039V439.138H520.814C520.105 439.138 519.633 439.611 519.633 440.32C519.633 441.028 520.105 441.501 520.814 441.501H532.039V446.227H521.996C520.696 446.227 519.633 447.29 519.633 448.59C519.633 449.889 520.696 450.953 521.996 450.953H531.566C531.448 451.189 531.448 451.307 531.448 451.543V468.083C531.448 469.028 532.275 469.855 533.22 469.855C534.166 469.855 534.993 469.028 534.993 468.083V451.543C534.993 451.307 534.993 451.189 534.874 450.953H602.458C602.339 451.189 602.339 451.307 602.339 451.543V468.083C602.339 469.028 603.166 469.855 604.112 469.855C605.057 469.855 605.884 469.028 605.884 468.083V451.543C605.884 451.307 605.884 451.189 605.766 450.953H615.336C616.636 450.953 617.699 449.889 617.699 448.59C617.699 447.29 616.636 446.227 615.336 446.227H605.293V441.501H616.518C617.227 441.501 617.699 441.028 617.699 440.32C617.699 439.611 617.227 439.138 616.518 439.138H605.293V434.412H616.518ZM534.402 427.324H602.93V432.05H534.402V427.324ZM602.93 446.227H534.402V441.501H602.93V446.227ZM602.93 439.138H534.402V434.412H602.93V439.138Z" fill="#403D56"/>
<path d="M223.071 384.789C223.071 363.877 206.175 314.375 185.262 314.375C164.349 314.375 147.453 363.877 147.453 384.789C147.453 405.7 164.349 422.594 185.262 422.594C206.175 422.594 223.071 405.7 223.071 384.789Z" fill="#F5F6FA"/>
<path d="M186.447 469.386C185.738 469.386 185.266 468.914 185.266 468.205V362.939C185.266 362.23 185.738 361.758 186.447 361.758C187.156 361.758 187.629 362.23 187.629 362.939V468.205C187.629 468.796 187.038 469.386 186.447 469.386Z" fill="#000022"/>
<path d="M186.447 380.066C185.738 380.066 185.266 379.594 185.266 378.885C185.266 378.53 185.384 378.294 185.62 378.058L201.098 362.581C201.571 362.108 202.28 362.108 202.752 362.581C203.225 363.054 203.225 363.762 202.752 364.235L187.274 379.712C187.038 379.948 186.802 380.066 186.447 380.066Z" fill="#000022"/>
<path d="M718.133 384.789C718.133 363.877 701.237 314.375 680.324 314.375C659.411 314.375 642.516 363.877 642.516 384.789C642.516 405.7 659.411 422.594 680.324 422.594C701.237 422.594 718.133 405.7 718.133 384.789Z" fill="#F5F6FA"/>
<path d="M681.502 469.386C680.793 469.386 680.32 468.914 680.32 468.205V362.939C680.32 362.23 680.793 361.758 681.502 361.758C682.211 361.758 682.683 362.23 682.683 362.939V468.205C682.683 468.796 682.093 469.386 681.502 469.386Z" fill="#000022"/>
<path d="M681.502 380.066C680.793 380.066 680.32 379.594 680.32 378.885C680.32 378.53 680.438 378.294 680.675 378.058L696.153 362.581C696.625 362.108 697.334 362.108 697.807 362.581C698.279 363.054 698.279 363.762 697.807 364.235L682.329 379.712C682.093 379.948 681.856 380.066 681.502 380.066Z" fill="#000022"/>
<path d="M335.315 61.1976H316.411C313.457 61.1976 311.094 58.8347 311.094 55.8811V12.168C311.094 9.21443 313.457 6.85156 316.411 6.85156H335.315C338.269 6.85156 340.632 9.21443 340.632 12.168V55.8811C340.632 58.8347 338.269 61.1976 335.315 61.1976Z" fill="#E6E8F0"/>
<path d="M409.756 468.796H312.871C307.318 468.796 302.828 464.306 302.828 458.753V67.6984C302.828 62.1457 307.318 57.6562 312.871 57.6562H409.756C415.309 57.6562 419.799 62.1457 419.799 67.6984V458.753C419.799 464.306 415.309 468.796 409.756 468.796Z" fill="#E6E8F0"/>
<path d="M351.858 468.796H254.973C249.419 468.796 244.93 464.306 244.93 458.753V67.6984C244.93 62.1457 249.419 57.6562 254.973 57.6562H351.858C357.411 57.6562 361.9 62.1457 361.9 67.6984V458.753C361.9 464.306 357.411 468.796 351.858 468.796Z" fill="#F5F6FA"/>
<path d="M317.596 61.1976H298.692C295.738 61.1976 293.375 58.8347 293.375 55.8811V12.168C293.375 9.21443 295.738 6.85156 298.692 6.85156H317.596C320.55 6.85156 322.913 9.21443 322.913 12.168V55.8811C322.913 58.8347 320.55 61.1976 317.596 61.1976Z" fill="#F5F6FA"/>
<path d="M292.778 146.263H270.329C268.675 146.263 267.375 144.963 267.375 143.309V109.047C267.375 107.393 268.675 106.094 270.329 106.094H292.778C294.432 106.094 295.732 107.393 295.732 109.047V143.309C295.732 144.963 294.432 146.263 292.778 146.263Z" fill="white"/>
<path d="M336.497 146.263H314.048C312.393 146.263 311.094 144.963 311.094 143.309V109.047C311.094 107.393 312.393 106.094 314.048 106.094H336.497C338.151 106.094 339.45 107.393 339.45 109.047V143.309C339.45 144.963 338.151 146.263 336.497 146.263Z" fill="white"/>
<path d="M292.778 208.88H270.329C268.675 208.88 267.375 207.58 267.375 205.926V171.665C267.375 170.011 268.675 168.711 270.329 168.711H292.778C294.432 168.711 295.732 170.011 295.732 171.665V205.926C295.732 207.58 294.432 208.88 292.778 208.88Z" fill="white"/>
<path d="M336.497 208.88H314.048C312.393 208.88 311.094 207.58 311.094 205.926V171.665C311.094 170.011 312.393 168.711 314.048 168.711H336.497C338.151 168.711 339.45 170.011 339.45 171.665V205.926C339.45 207.58 338.151 208.88 336.497 208.88Z" fill="white"/>
<path d="M292.778 271.497H270.329C268.675 271.497 267.375 270.197 267.375 268.543V234.282C267.375 232.628 268.675 231.328 270.329 231.328H292.778C294.432 231.328 295.732 232.628 295.732 234.282V268.543C295.732 270.197 294.432 271.497 292.778 271.497Z" fill="white"/>
<path d="M336.497 271.497H314.048C312.393 271.497 311.094 270.197 311.094 268.543V234.282C311.094 232.628 312.393 231.328 314.048 231.328H336.497C338.151 231.328 339.45 232.628 339.45 234.282V268.543C339.45 270.197 338.151 271.497 336.497 271.497Z" fill="white"/>
<path d="M292.778 334.106H270.329C268.675 334.106 267.375 332.807 267.375 331.153V296.891C267.375 295.237 268.675 293.938 270.329 293.938H292.778C294.432 293.938 295.732 295.237 295.732 296.891V331.153C295.732 332.807 294.432 334.106 292.778 334.106Z" fill="white"/>
<path d="M336.497 334.106H314.048C312.393 334.106 311.094 332.807 311.094 331.153V296.891C311.094 295.237 312.393 293.938 314.048 293.938H336.497C338.151 293.938 339.45 295.237 339.45 296.891V331.153C339.45 332.807 338.151 334.106 336.497 334.106Z" fill="white"/>
<path d="M292.778 396.723H270.329C268.675 396.723 267.375 395.424 267.375 393.77V359.508C267.375 357.854 268.675 356.555 270.329 356.555H292.778C294.432 356.555 295.732 357.854 295.732 359.508V393.77C295.732 395.424 294.432 396.723 292.778 396.723Z" fill="white"/>
<path d="M336.497 396.723H314.048C312.393 396.723 311.094 395.424 311.094 393.77V359.508C311.094 357.854 312.393 356.555 314.048 356.555H336.497C338.151 356.555 339.45 357.854 339.45 359.508V393.77C339.45 395.424 338.151 396.723 336.497 396.723Z" fill="white"/>
<path d="M823.284 267.951H804.379C801.426 267.951 799.062 265.588 799.062 262.634V237.824C799.062 234.871 801.426 232.508 804.379 232.508H823.284C826.238 232.508 828.601 234.871 828.601 237.824V262.634C828.601 265.588 826.238 267.951 823.284 267.951Z" fill="#E6E8F0"/>
<path d="M982.787 469.972H885.902C880.349 469.972 875.859 465.482 875.859 459.929V272.081C875.859 266.529 880.349 262.039 885.902 262.039H982.787C988.34 262.039 992.83 266.529 992.83 272.081V459.929C992.83 465.482 988.34 469.972 982.787 469.972Z" fill="#E6E8F0"/>
<path d="M924.897 469.972H757.121C751.568 469.972 747.078 465.482 747.078 459.929V272.081C747.078 266.529 751.568 262.039 757.121 262.039H924.897C930.451 262.039 934.94 266.529 934.94 272.081V459.929C934.94 465.482 930.451 469.972 924.897 469.972Z" fill="#F5F6FA"/>
<path d="M805.565 267.951H786.661C783.707 267.951 781.344 265.588 781.344 262.634V237.824C781.344 234.871 783.707 232.508 786.661 232.508H805.565C808.519 232.508 810.882 234.871 810.882 237.824V262.634C810.882 265.588 808.519 267.951 805.565 267.951Z" fill="#F5F6FA"/>
<path d="M830.372 354.786H807.923C806.268 354.786 804.969 353.486 804.969 351.832V317.571C804.969 315.917 806.268 314.617 807.923 314.617H830.372C832.026 314.617 833.325 315.917 833.325 317.571V351.832C833.325 353.486 832.026 354.786 830.372 354.786Z" fill="white"/>
<path d="M874.09 354.786H851.641C849.987 354.786 848.688 353.486 848.688 351.832V317.571C848.688 315.917 849.987 314.617 851.641 314.617H874.09C875.744 314.617 877.044 315.917 877.044 317.571V351.832C877.044 353.486 875.744 354.786 874.09 354.786Z" fill="white"/>
<path d="M830.372 417.403H807.923C806.268 417.403 804.969 416.104 804.969 414.45V380.188C804.969 378.534 806.268 377.234 807.923 377.234H830.372C832.026 377.234 833.325 378.534 833.325 380.188V414.45C833.325 416.104 832.026 417.403 830.372 417.403Z" fill="white"/>
<path d="M874.09 417.403H851.641C849.987 417.403 848.688 416.104 848.688 414.45V380.188C848.688 378.534 849.987 377.234 851.641 377.234H874.09C875.744 377.234 877.044 378.534 877.044 380.188V414.45C877.044 416.104 875.744 417.403 874.09 417.403Z" fill="white"/>
<path d="M1236.82 470.566H1.18152C0.472609 470.566 0 470.093 0 469.385C0 468.676 0.472609 468.203 1.18152 468.203H1236.82C1237.53 468.203 1238 468.676 1238 469.385C1238 470.093 1237.41 470.566 1236.82 470.566Z" fill="#000022"/>
<path d="M428.657 511.918H318.775C318.066 511.918 317.594 511.445 317.594 510.736C317.594 510.027 318.066 509.555 318.775 509.555H428.657C429.366 509.555 429.838 510.027 429.838 510.736C429.838 511.445 429.248 511.918 428.657 511.918Z" fill="#F5F6FA"/>
<path d="M701.587 511.918H591.705C590.996 511.918 590.523 511.445 590.523 510.736C590.523 510.027 590.996 509.555 591.705 509.555H701.587C702.296 509.555 702.768 510.027 702.768 510.736C702.768 511.445 702.177 511.918 701.587 511.918Z" fill="#F5F6FA"/>
<path d="M974.516 511.918H864.635C863.926 511.918 863.453 511.445 863.453 510.736C863.453 510.027 863.926 509.555 864.635 509.555H974.516C975.225 509.555 975.698 510.027 975.698 510.736C975.698 511.445 975.107 511.918 974.516 511.918Z" fill="#F5F6FA"/>
<path d="M505.453 384.789C505.453 363.877 488.558 314.375 467.645 314.375C446.732 314.375 429.836 363.877 429.836 384.789C429.836 405.7 446.732 422.594 467.645 422.594C488.558 422.594 505.453 405.7 505.453 384.789Z" fill="#F5F6FA"/>
<path d="M468.83 469.386C468.121 469.386 467.648 468.914 467.648 468.205V362.939C467.648 362.23 468.121 361.758 468.83 361.758C469.539 361.758 470.012 362.23 470.012 362.939V468.205C470.012 468.796 469.421 469.386 468.83 469.386Z" fill="#000022"/>
<path d="M468.83 380.066C468.121 380.066 467.648 379.594 467.648 378.885C467.648 378.53 467.767 378.294 468.003 378.058L483.481 362.581C483.953 362.108 484.662 362.108 485.135 362.581C485.608 363.054 485.608 363.762 485.135 364.235L469.657 379.712C469.421 379.948 469.184 380.066 468.83 380.066Z" fill="#000022"/>
<path d="M1085.59 384.796C1085.59 363.885 1068.69 314.383 1047.78 314.383C1026.86 314.383 1009.97 363.885 1009.97 384.796C1009.97 405.708 1026.86 422.602 1047.78 422.602C1068.69 422.602 1085.59 405.708 1085.59 384.796Z" fill="#F5F6FA"/>
<path d="M1048.95 469.386C1048.25 469.386 1047.77 468.914 1047.77 468.205V362.939C1047.77 362.23 1048.25 361.758 1048.95 361.758C1049.66 361.758 1050.14 362.23 1050.14 362.939V468.205C1050.14 468.796 1049.55 469.386 1048.95 469.386Z" fill="#000022"/>
<path d="M1048.95 380.066C1048.25 380.066 1047.77 379.594 1047.77 378.885C1047.77 378.53 1047.89 378.294 1048.13 378.058L1063.61 362.581C1064.08 362.108 1064.79 362.108 1065.26 362.581C1065.73 363.054 1065.73 363.762 1065.26 364.235L1049.78 379.712C1049.55 379.948 1049.31 380.066 1048.95 380.066Z" fill="#000022"/>
<path d="M100.194 422.361H87.9062V418.58C91.8053 415.863 95.2317 416.099 99.7215 418.816L100.194 422.361Z" fill="#575DA6"/>
<path d="M85.072 488.521H82.3545L82 478.242H85.072V488.521Z" fill="#F5B5B7"/>
<path d="M85.7814 491.122H77.1562V491.004C77.1562 489.114 78.6922 487.578 80.5827 487.578H85.8995L85.7814 491.122Z" fill="#2F2F41"/>
<path d="M100.195 488.521H102.913L103.267 478.242H100.195V488.521Z" fill="#F5B5B7"/>
<path d="M99.4844 487.695H104.801C106.692 487.695 108.228 489.231 108.228 491.122V491.24H99.6025L99.4844 487.695Z" fill="#2F2F41"/>
<path d="M100.314 487.221C99.8409 487.221 99.4864 486.867 99.3683 486.394L92.7518 457.331C92.7518 457.213 92.6336 457.094 92.3973 457.094C92.2792 457.094 92.161 457.213 92.0429 457.331L85.8989 486.158C85.7808 486.63 85.4263 486.985 84.9537 486.985H81.9999C81.4091 486.985 81.0547 486.512 81.0547 486.039L83.1814 449.533L84.0085 449.297L101.141 449.415L104.803 485.921C104.803 486.512 104.449 486.985 103.976 486.985L100.314 487.221Z" fill="#2F2F41"/>
<path d="M93.2241 415.744C96.2257 415.744 98.6591 413.311 98.6591 410.31C98.6591 407.308 96.2257 404.875 93.2241 404.875C90.2224 404.875 87.7891 407.308 87.7891 410.31C87.7891 413.311 90.2224 415.744 93.2241 415.744Z" fill="#F5B5B7"/>
<path d="M89.9144 453.435C88.9691 453.435 88.0239 453.317 87.0787 453.08C85.4246 452.608 84.1249 451.426 83.2978 449.89C83.1797 449.654 83.1797 449.418 83.1797 449.182C83.7704 447.173 86.6061 436.658 84.8338 428.27C84.3612 425.907 84.7157 423.426 86.1335 421.418C87.4332 419.409 89.4418 417.992 91.8048 417.637C92.1593 417.519 92.3956 417.519 92.75 417.519C95.3494 417.165 97.9487 418.11 99.8392 419.882C101.73 421.654 102.793 424.253 102.675 426.971L101.257 449.536C101.257 449.89 101.021 450.245 100.784 450.363C99.1303 451.072 94.286 453.435 89.9144 453.435Z" fill="#403D56"/>
<path d="M99.2458 406.417C98.0642 403.463 95.1104 401.809 92.0385 402.4L93.6926 403.818C91.5659 403.936 89.321 403.7 87.9031 405.236C88.3757 405.236 88.9665 406.299 89.4391 406.181C88.4939 406.299 87.6668 406.771 87.3124 407.598C86.9579 408.425 86.8398 409.371 87.0761 410.198C87.6668 411.497 88.2576 412.797 88.9665 413.978C88.8484 411.852 93.1018 406.771 95.2286 407.244C94.1652 407.598 93.22 408.307 92.6292 409.252C94.0471 408.544 95.583 408.307 97.119 408.544C97.4735 408.662 97.8279 408.662 98.1824 408.662C98.8913 408.544 99.3639 407.835 99.2458 407.126C99.2458 406.89 99.1276 406.771 99.0095 406.535L99.2458 406.417Z" fill="#2F2F41"/>
<path d="M89.5583 452.138C89.4401 452.138 89.322 452.138 89.2038 452.02L79.0427 447.53C78.5701 447.294 78.3338 446.821 78.452 446.349L85.1867 420.83C85.6593 418.821 87.786 417.64 89.6765 418.23C89.6765 418.23 89.6764 418.23 89.7946 418.23L92.5121 419.058L90.6217 451.193C90.6217 451.547 90.3854 451.783 90.1491 452.02C89.9128 452.02 89.6765 452.138 89.5583 452.138Z" fill="#1F64FF"/>
<path d="M108.46 446.466L107.988 444.812L107.279 442.331L106.925 441.149L106.216 438.668L101.49 420.947C101.017 418.938 99.0083 417.757 96.9997 418.348C96.9997 418.348 96.9997 418.348 96.8816 418.348L94.1641 419.175L95.4637 441.74L95.5819 444.103L95.7 445.639L95.8182 448.002L96.0545 451.31C96.0545 451.782 96.5271 452.255 96.9997 452.255C97.1179 452.255 97.236 452.255 97.3542 452.137L107.515 447.647C108.342 447.411 108.579 446.938 108.46 446.466Z" fill="#1F64FF"/>
<path d="M107.046 441.027L95.8213 443.981L95.7031 441.618L106.337 438.664L107.046 441.027Z" fill="#F5F6FA"/>
<path d="M107.989 444.692L96.0557 447.882L95.9375 445.519L107.28 442.211L107.989 444.692Z" fill="#F5F6FA"/>
<path d="M90.9735 442.207L90.7372 444.452L79.8672 441.262L80.4579 438.781L90.9735 442.207Z" fill="#F5F6FA"/>
<path d="M90.7371 445.99L79.5126 442.445L78.9219 444.808L90.6189 448.353L90.7371 445.99Z" fill="#F5F6FA"/>
<path d="M79.756 448.471C81.0556 448.117 81.7645 446.817 81.4101 445.636C81.4101 445.517 81.2919 445.399 81.2919 445.281L86.4906 428.741L82.7098 427.914L77.9837 444.1C76.8021 444.69 76.4477 446.108 77.0384 447.29C77.5111 448.235 78.6926 448.707 79.756 448.471Z" fill="#F5B5B7"/>
<path d="M86.722 420.594C87.7854 420.712 88.3761 421.893 88.1398 423.429L86.8402 430.636C86.722 431.227 86.2494 431.581 85.8949 431.463L81.5233 430.4C81.1688 430.282 81.0507 429.809 81.287 429.336L83.8863 422.838C84.2408 421.539 85.4223 420.712 86.722 420.594Z" fill="#403D56"/>
<path d="M93.222 400.266C97.0028 400.266 100.075 403.219 100.193 407H101.493C101.729 407 101.965 407.236 101.965 407.472V409.245C101.965 409.481 101.729 409.717 101.493 409.717H86.6054C86.3691 409.717 86.1328 409.481 86.1328 409.245V407.236C86.1328 403.456 89.3229 400.266 93.222 400.266Z" fill="#1F64FF"/>
<path d="M94.0484 443.625H90.9765C90.7402 443.625 90.622 443.507 90.622 443.27L90.0312 436.891H95.1118L94.521 443.27C94.4029 443.507 94.1666 443.625 94.0484 443.625Z" fill="#F5F6FA"/>
<path d="M94.9975 437.724H89.917C89.6806 437.724 89.5625 437.488 89.5625 437.37V436.425C89.5625 436.188 89.7988 436.07 89.917 436.07H94.9975C95.2338 436.07 95.352 436.307 95.352 436.425V437.37C95.4701 437.488 95.2338 437.724 94.9975 437.724Z" fill="#E1E2E9"/>
<path d="M92.5125 440.204C92.6306 440.204 92.7488 440.204 92.8669 440.322L101.138 433.234L100.665 430.635L104.446 429.453L105.746 433.943C105.982 434.651 105.627 435.478 105.037 435.951L94.6392 442.567C94.6392 443.867 93.694 444.93 92.3943 444.93C91.0946 444.93 90.0312 443.985 90.0312 442.685C90.0312 441.386 90.9765 440.322 92.2761 440.322C92.3943 440.204 92.3943 440.204 92.5125 440.204Z" fill="#F5B5B7"/>
<path d="M101.141 421.184C102.322 420.83 103.386 421.775 103.858 423.193L105.749 430.281C105.867 430.872 105.631 431.345 105.158 431.463L100.314 432.172C99.9593 432.172 99.6049 431.817 99.6049 431.345L99.3685 424.374C99.1322 422.956 99.9593 421.657 101.141 421.184Z" fill="#403D56"/>
<path d="M156.672 440.441H153.01C152.773 440.441 152.537 440.205 152.537 439.968L151.828 432.289H157.972L157.263 439.968C157.145 440.205 156.909 440.441 156.672 440.441Z" fill="#F5F6FA"/>
<path d="M157.968 433.228H151.824C151.588 433.228 151.352 432.992 151.352 432.756V431.574C151.352 431.338 151.588 431.102 151.824 431.102H157.968C158.204 431.102 158.441 431.338 158.441 431.574V432.756C158.441 433.11 158.204 433.228 157.968 433.228Z" fill="#E1E2E9"/>
<path d="M193.299 485.213C190.581 481.669 188.455 477.652 186.919 473.399C186.682 472.926 186.919 472.336 187.509 471.981L196.725 467.019C197.08 466.901 197.434 466.783 197.671 467.019C198.025 467.137 198.261 467.492 198.261 467.728C199.325 471.863 201.333 475.644 204.169 478.715C204.405 478.952 204.523 479.306 204.405 479.661C204.287 480.015 204.169 480.251 203.814 480.488L194.599 485.45C194.244 485.804 193.653 485.686 193.299 485.213Z" fill="#F5F6FA"/>
<path d="M193.888 484.739C194.006 484.857 194.124 484.857 194.361 484.857L203.577 479.895C203.695 479.895 203.695 479.777 203.695 479.659C203.695 479.541 203.695 479.423 203.577 479.305C200.741 475.997 198.614 472.216 197.551 467.963C197.551 467.845 197.433 467.727 197.315 467.727C197.196 467.727 197.078 467.727 197.078 467.727L187.862 472.689C187.744 472.807 187.626 472.925 187.744 473.043C189.162 477.296 191.289 481.195 193.888 484.739Z" fill="white"/>
<path d="M197.314 474.112L192.234 476.357C191.879 476.475 191.407 476.357 191.17 476.003L191.052 475.766C190.934 475.412 191.052 474.939 191.407 474.703L196.487 472.458C196.842 472.34 197.314 472.458 197.55 472.813L197.669 473.049C197.905 473.522 197.787 473.994 197.314 474.112Z" fill="#F5F6FA"/>
<path d="M199.205 477.534L194.124 479.779C193.77 479.897 193.297 479.779 193.061 479.425L192.943 479.188C192.825 478.834 192.943 478.361 193.297 478.125L198.378 475.88C198.732 475.762 199.205 475.88 199.441 476.235L199.559 476.471C199.796 476.944 199.559 477.416 199.205 477.534Z" fill="#F5F6FA"/>
<path d="M187.388 474.7C186.089 473.873 185.734 472.101 186.561 470.801C186.679 470.683 186.798 470.565 186.916 470.447L184.789 440.32L190.933 440.911L191.051 470.447C192.114 471.628 192.115 473.4 190.933 474.464C189.87 475.291 188.452 475.409 187.388 474.7Z" fill="#A0616A"/>
<path d="M186.093 450.36C185.856 450.124 185.62 449.77 185.62 449.415L185.148 441.263C185.029 439.491 186.447 437.955 188.219 437.837C189.755 437.719 191.173 438.782 191.528 440.2L193.536 447.525C193.654 448.116 193.3 448.824 192.709 448.943L187.156 450.478C186.683 450.715 186.329 450.597 186.093 450.36Z" fill="#403D56"/>
<path d="M175.696 511.796H172.388L170.852 499.391H175.696V511.796Z" fill="#A0616A"/>
<path d="M169.432 510.852H176.403V514.75H166.242V514.041C166.242 512.269 167.66 510.852 169.432 510.852Z" fill="#2F2F41"/>
<path d="M187.742 511.796H184.552L183.016 499.391H187.742V511.796Z" fill="#A0616A"/>
<path d="M181.479 510.852H188.45V514.75H178.289V514.041C178.289 512.269 179.707 510.852 181.479 510.852Z" fill="#2F2F41"/>
<path d="M175.458 505.537L171.913 505.419C171.322 505.419 170.732 504.828 170.732 504.238C169.786 489.824 168.487 474.229 170.495 468.322C170.495 467.613 170.968 467.141 171.677 467.141C171.795 467.141 171.795 467.141 171.913 467.141L186.091 469.149C186.682 469.267 187.155 469.74 187.155 470.331C188.927 477.419 189.045 490.297 188.927 503.647C188.927 504.356 188.454 504.828 187.746 504.828H183.965C183.374 504.828 182.901 504.356 182.783 503.883L180.42 488.879C180.302 488.406 179.829 488.052 179.357 488.17C179.002 488.288 178.648 488.525 178.53 488.997L176.639 504.71C176.639 505.065 176.167 505.537 175.458 505.537C175.576 505.537 175.458 505.537 175.458 505.537Z" fill="#2F2F41"/>
<path d="M177.939 470.327C175.812 469.145 173.567 468.318 171.204 467.964C170.85 467.964 170.613 467.728 170.377 467.491C170.141 467.255 170.141 466.901 170.141 466.546L173.567 441.264C173.921 438.31 175.93 435.711 178.648 434.411C181.365 433.23 184.437 433.466 186.918 435.002C187.036 435.12 187.155 435.12 187.273 435.238C190.108 437.365 191.408 440.909 190.581 444.335C188.454 452.842 187.745 466.901 187.627 469.618C187.627 470.091 187.273 470.563 186.8 470.681C185.5 471.154 184.201 471.39 182.783 471.39C181.247 471.508 179.475 471.154 177.939 470.327Z" fill="#403D56"/>
<path d="M180.889 431.105C184.478 431.105 187.387 428.196 187.387 424.607C187.387 421.019 184.478 418.109 180.889 418.109C177.3 418.109 174.391 421.019 174.391 424.607C174.391 428.196 177.3 431.105 180.889 431.105Z" fill="#A0616A"/>
<path d="M185.379 429.687C184.552 430.514 183.252 430.632 182.425 429.805C182.071 429.451 181.834 428.978 181.716 428.506C181.716 428.387 181.716 428.269 181.716 428.151C181.953 427.442 182.071 426.615 182.189 425.788C182.189 425.552 182.071 425.434 181.953 425.197C181.007 423.898 178.762 425.788 177.817 424.607C177.227 423.898 177.935 422.716 177.463 422.008C176.872 420.944 175.218 421.417 174.155 420.944C172.973 420.354 173.091 418.463 173.8 417.4C174.863 416.1 176.399 415.273 177.935 415.273C179.59 415.273 181.126 415.51 182.662 416.219C184.434 416.809 185.97 417.873 187.151 419.29C188.333 421.181 188.687 423.543 187.86 425.788C187.506 427.206 186.561 428.624 185.379 429.687Z" fill="#2F2F41"/>
<path d="M190.582 436.064C190.464 435.473 189.519 434.764 188.101 434.173C183.611 432.283 178.412 432.755 174.277 435.355C174.041 435.355 173.686 435.591 173.686 435.827L168.96 456.502L168.369 459.22L168.015 460.992L167.424 463.709L167.07 465.127C166.952 465.481 167.188 465.836 167.542 465.954C167.542 465.954 167.542 465.954 167.661 465.954L187.865 467.726C188.219 467.726 188.455 467.49 188.574 467.135L188.81 464.182L189.046 461.11L189.164 459.81L189.401 456.739L190.582 436.064Z" fill="#1F64FF"/>
<path d="M157.376 437.365C157.376 437.483 157.376 437.601 157.494 437.838L168.837 444.336L171.554 442.8L174.508 446.58L168.6 450.715L155.722 440.555C154.304 441.028 152.65 440.319 152.177 438.901C151.704 437.483 152.413 435.829 153.831 435.357C155.249 434.884 156.903 435.593 157.376 437.011C157.376 437.129 157.376 437.247 157.376 437.365Z" fill="#A0616A"/>
<path d="M169.195 443.748C169.195 443.394 169.313 443.039 169.55 442.803L175.339 437.014C176.639 435.714 178.647 435.714 179.947 437.014C181.011 438.077 181.247 439.849 180.42 441.149L176.284 447.41C175.93 448.001 175.221 448.119 174.63 447.765L169.786 444.575C169.432 444.339 169.195 444.102 169.195 443.748Z" fill="#403D56"/>
<path d="M189.162 456.508L189.044 459.698L168.367 459.225L168.958 456.508H189.162Z" fill="#F5F6FA"/>
<path d="M188.927 460.992L188.69 464.182L167.305 463.709L167.895 460.992H188.927Z" fill="#F5F6FA"/>
<path d="M181.007 412.086C176.399 412.086 172.736 415.748 172.618 420.238H171.082C170.846 420.238 170.609 420.474 170.609 420.71V422.837C170.609 423.073 170.846 423.31 171.082 423.31H189.041C189.277 423.31 189.514 423.073 189.514 422.837V420.474C189.396 415.867 185.615 412.086 181.007 412.086Z" fill="#1F64FF"/>
<path d="M228.389 497.74H226.617C226.617 497.503 224.136 491.832 224.136 491.832L222.718 488.288L221.773 485.925L220.355 482.381L218.701 478.246C218.583 477.773 218.11 477.537 217.637 477.655C217.283 477.773 217.047 478.01 217.047 478.246L215.393 482.381L213.975 485.925L213.03 488.288L211.612 491.832C211.612 491.832 209.131 497.503 209.131 497.74H207.358C206.413 497.74 205.586 498.567 205.586 499.512C205.586 500.457 206.413 501.284 207.358 501.284H228.626C229.571 501.284 230.398 500.457 230.398 499.512C230.398 498.567 229.335 497.74 228.389 497.74Z" fill="#EB6484"/>
<path d="M227.209 528.452H226.5C226.619 528.334 223.428 520.3 223.428 520.3L221.538 515.81L220.238 512.739L218.348 508.249L216.339 503.287C216.221 502.696 215.63 502.342 215.04 502.46C214.685 502.578 214.331 502.815 214.213 503.287L212.204 508.249L210.314 512.739L209.014 515.81L207.123 520.3C207.123 520.3 204.051 528.215 204.051 528.452H203.343C202.397 528.452 201.57 529.279 201.57 530.224C201.57 531.169 202.397 531.996 203.343 531.996H226.973C227.918 531.996 228.745 531.169 228.745 530.224C228.745 529.279 228.155 528.452 227.209 528.452Z" fill="#EB6484"/>
<path d="M221.651 485.927H213.734L215.27 482.383H220.233L221.651 485.927Z" fill="#F1F1F1"/>
<path d="M224.135 491.833H211.375L212.793 488.289H222.718L224.135 491.833Z" fill="#F1F1F1"/>
<path d="M220.354 512.739H210.43L212.32 508.25H218.464L220.354 512.739Z" fill="#F1F1F1"/>
<path d="M223.428 520.302H207.359L209.25 515.812H221.538L223.428 520.302Z" fill="#F1F1F1"/>
<path d="M1079.09 468.438C1079.09 457.214 1088.18 448.117 1099.41 448.236C1110.63 448.236 1119.61 457.333 1119.61 468.438" fill="#F5F6FA"/>
<path d="M1099.41 468.439C1099.06 468.439 1098.82 468.203 1098.82 467.849V457.216C1098.82 456.861 1099.06 456.625 1099.41 456.625C1099.77 456.625 1100 456.861 1100 457.216V467.849C1099.88 468.203 1099.65 468.439 1099.41 468.439Z" fill="#000022"/>
<path d="M1099.41 464.773C1099.29 464.773 1099.17 464.773 1099.05 464.655L1092.44 458.984C1092.2 458.747 1092.2 458.393 1092.32 458.157C1092.44 457.92 1092.91 457.92 1093.15 458.039L1099.76 463.709C1100 463.946 1100 464.3 1099.76 464.536C1099.65 464.655 1099.53 464.773 1099.41 464.773Z" fill="#000022"/>
<path d="M1141.59 468.438C1141.59 457.214 1150.68 448.117 1161.91 448.236C1173.13 448.236 1182.11 457.333 1182.11 468.438" fill="#F5F6FA"/>
<path d="M1161.91 468.439C1161.56 468.439 1161.32 468.203 1161.32 467.849V457.216C1161.32 456.861 1161.56 456.625 1161.91 456.625C1162.27 456.625 1162.5 456.861 1162.5 457.216V467.849C1162.38 468.203 1162.15 468.439 1161.91 468.439Z" fill="#000022"/>
<path d="M1161.91 464.773C1161.79 464.773 1161.67 464.773 1161.55 464.655L1154.94 458.984C1154.7 458.747 1154.7 458.393 1154.82 458.157C1154.94 457.92 1155.41 457.92 1155.65 458.039L1162.26 463.709C1162.5 463.946 1162.5 464.3 1162.26 464.536C1162.15 464.655 1162.03 464.773 1161.91 464.773Z" fill="#000022"/>
</svg>
