<svg width="5" height="22" viewBox="0 0 5 22" fill="none" xmlns="http://www.w3.org/2000/svg">
<path d="M2.5 5.74219C1.83696 5.74219 1.20107 5.46563 0.732234 4.97334C0.263393 4.48106 0 3.81338 0 3.11719C0 2.42099 0.263393 1.75332 0.732234 1.26103C1.20107 0.768749 1.83696 0.492188 2.5 0.492188C3.16304 0.492188 3.79893 0.768749 4.26777 1.26103C4.73661 1.75332 5 2.42099 5 3.11719C5 3.81338 4.73661 4.48106 4.26777 4.97334C3.79893 5.46563 3.16304 5.74219 2.5 5.74219ZM2.5 13.6172C1.83696 13.6172 1.20107 13.3406 0.732234 12.8483C0.263393 12.3561 0 11.6884 0 10.9922C0 10.296 0.263393 9.62832 0.732234 9.13603C1.20107 8.64375 1.83696 8.36719 2.5 8.36719C3.16304 8.36719 3.79893 8.64375 4.26777 9.13603C4.73661 9.62832 5 10.296 5 10.9922C5 11.6884 4.73661 12.3561 4.26777 12.8483C3.79893 13.3406 3.16304 13.6172 2.5 13.6172ZM2.5 21.4922C1.83696 21.4922 1.20107 21.2156 0.732234 20.7233C0.263393 20.2311 0 19.5634 0 18.8672C0 18.171 0.263393 17.5033 0.732234 17.011C1.20107 16.5187 1.83696 16.2422 2.5 16.2422C3.16304 16.2422 3.79893 16.5187 4.26777 17.011C4.73661 17.5033 5 18.171 5 18.8672C5 19.5634 4.73661 20.2311 4.26777 20.7233C3.79893 21.2156 3.16304 21.4922 2.5 21.4922Z" fill="#AAB2C8"/>
</svg>
