<svg width="28" height="30" viewBox="0 0 28 30" fill="none" xmlns="http://www.w3.org/2000/svg">
<path d="M6.67152 0H5.91812C5.82199 0 5.73082 0.0201999 5.6425 0.0489025C5.2012 0.192022 4.875 0.663157 4.875 1.22831V1.74693V3.07437V3.765C4.875 3.89333 4.89638 4.01458 4.92739 4.13067C5.06019 4.62932 5.45097 4.99332 5.91812 4.99332H6.67152C7.24773 4.99332 7.71464 4.44345 7.71464 3.765V3.07437V1.74693V1.22831C7.71464 0.549871 7.24773 0 6.67152 0Z" fill="black"/>
<path d="M21.4996 0H20.7462C20.17 0 19.7031 0.549871 19.7031 1.22831V1.74693V3.07437V3.765C19.7031 4.44345 20.17 4.99332 20.7462 4.99332H21.4996C22.0759 4.99332 22.5428 4.44345 22.5428 3.765V3.07437V1.74693V1.22831C22.5425 0.549871 22.0756 0 21.4996 0Z" fill="black"/>
<path d="M25.3516 3.07812H23.4863V3.76876C23.4863 4.96439 22.5966 5.93703 21.5032 5.93703H20.7498C19.6564 5.93703 18.7667 4.96439 18.7667 3.76876V3.07812H8.65745V3.76876C8.65745 4.96439 7.76777 5.93703 6.67437 5.93703H5.92097C4.82752 5.93703 3.93789 4.96439 3.93789 3.76876V3.07812H2.31251C1.27715 3.07812 0.4375 3.86533 0.4375 4.83586V28.2461C0.4375 29.2184 1.2771 30.0038 2.31251 30.0038H25.3514C26.3877 30.0038 27.2264 29.2182 27.2264 28.2461V4.83611C27.2266 3.86558 26.3879 3.07812 25.3516 3.07812ZM24.7703 27.4236L2.82547 27.4151V8.54164H24.7703V27.4236Z" fill="black"/>
<path d="M16.1796 13.0887H21.951C22.4519 13.0887 22.8571 12.5884 22.8571 11.9701C22.8571 11.3518 22.4517 10.8516 21.951 10.8516H16.1796C15.6786 10.8516 15.2734 11.3518 15.2734 11.9701C15.2734 12.5882 15.6786 13.0887 16.1796 13.0887Z" fill="black"/>
<path d="M16.1796 17.1277H21.951C22.4519 17.1277 22.8571 16.6274 22.8571 16.0091C22.8571 15.3909 22.4517 14.8906 21.951 14.8906H16.1796C15.6786 14.8906 15.2734 15.3909 15.2734 16.0091C15.2734 16.6274 15.6786 17.1277 16.1796 17.1277Z" fill="black"/>
<path d="M16.1796 21.1668H21.951C22.4519 21.1668 22.8571 20.6665 22.8571 20.0483C22.8571 19.43 22.4517 18.9297 21.951 18.9297H16.1796C15.6786 18.9297 15.2734 19.43 15.2734 20.0483C15.2734 20.6665 15.6786 21.1668 16.1796 21.1668Z" fill="black"/>
<path d="M16.1796 25.2059H21.951C22.4519 25.2059 22.8571 24.7056 22.8571 24.0873C22.8571 23.469 22.4517 22.9688 21.951 22.9688H16.1796C15.6786 22.9688 15.2734 23.469 15.2734 24.0873C15.2734 24.7056 15.6786 25.2059 16.1796 25.2059Z" fill="black"/>
<path d="M5.96083 13.0887H11.7322C12.2332 13.0887 12.6383 12.5884 12.6383 11.9701C12.6383 11.3518 12.2329 10.8516 11.7322 10.8516H5.96083C5.45982 10.8516 5.05469 11.3518 5.05469 11.9701C5.05474 12.5882 5.45982 13.0887 5.96083 13.0887Z" fill="black"/>
<path d="M5.96083 17.1277H11.7322C12.2332 17.1277 12.6383 16.6274 12.6383 16.0091C12.6383 15.3909 12.2329 14.8906 11.7322 14.8906H5.96083C5.45982 14.8906 5.05469 15.3909 5.05469 16.0091C5.05474 16.6274 5.45982 17.1277 5.96083 17.1277Z" fill="black"/>
<path d="M5.96083 21.1668H11.7322C12.2332 21.1668 12.6383 20.6665 12.6383 20.0483C12.6383 19.43 12.2329 18.9297 11.7322 18.9297H5.96083C5.45982 18.9297 5.05469 19.43 5.05469 20.0483C5.05469 20.6665 5.45982 21.1668 5.96083 21.1668Z" fill="black"/>
<path d="M5.96083 25.2059H11.7322C12.2332 25.2059 12.6383 24.7056 12.6383 24.0873C12.6383 23.469 12.2329 22.9688 11.7322 22.9688H5.96083C5.45982 22.9688 5.05469 23.469 5.05469 24.0873C5.05474 24.7056 5.45982 25.2059 5.96083 25.2059Z" fill="black"/>
</svg>
