<svg width="31" height="20" viewBox="0 0 31 20" fill="none" xmlns="http://www.w3.org/2000/svg">
<path d="M30.8281 15.0943C30.8281 6.79245 24.0781 0 15.8281 0C7.57812 0 0.828125 6.79245 0.828125 15.0943C0.828125 16.7925 1.20312 18.4906 1.57812 20H29.8906C30.4531 18.4906 30.8281 16.7925 30.8281 15.0943ZM14.7031 3.20755C14.7031 2.64151 15.2656 2.07547 15.8281 2.07547C16.3906 2.07547 16.9531 2.64151 16.9531 3.20755V5.28302C16.9531 5.84906 16.3906 6.41509 15.8281 6.41509C15.2656 6.41509 14.7031 5.84906 14.7031 5.28302V3.20755ZM8.32812 10.7547C8.14062 11.3208 7.39062 11.5094 7.01562 11.1321L5.14062 10C4.57812 9.81132 4.39062 9.0566 4.76562 8.67924C5.14062 8.11321 5.70312 7.92453 6.26562 8.30189L8.14062 9.43396C8.51562 9.62264 8.70312 10.1887 8.32812 10.7547ZM11.5156 7.54717C10.9531 7.92453 10.3906 7.73585 10.0156 7.16981L8.89062 5.28302C8.70312 4.90566 8.89062 4.15094 9.45312 3.96226C9.82812 3.58491 10.5781 3.77358 10.9531 4.33962L12.0781 6.22641C12.2656 6.60377 12.0781 7.35849 11.5156 7.54717ZM16.0156 18.3019C14.3281 18.3019 12.8281 16.7925 12.8281 15.0943C12.8281 13.3962 14.3281 11.8868 16.0156 11.8868C16.3906 11.8868 16.9531 11.8868 17.3281 12.0755L23.7031 5.66038C24.0781 5.28302 24.8281 5.28302 25.2031 5.66038C25.5781 6.03774 25.5781 6.79245 25.2031 7.16981L18.8281 13.5849C19.2031 13.9623 19.2031 14.5283 19.2031 15.0943C19.2031 16.7925 17.8906 18.3019 16.0156 18.3019ZM27.6406 16.2264H25.5781C25.0156 16.2264 24.4531 15.6604 24.4531 15.0943C24.4531 14.5283 25.0156 13.9623 25.5781 13.9623H27.6406C28.2031 13.9623 28.7656 14.5283 28.7656 15.0943C28.7656 15.6604 28.2031 16.2264 27.6406 16.2264Z" fill="black"/>
</svg>
