<svg width="21" height="20" viewBox="0 0 21 20" fill="none" xmlns="http://www.w3.org/2000/svg">
<path fill-rule="evenodd" clip-rule="evenodd" d="M12.3626 1.46255C11.8875 -0.487515 9.11246 -0.487515 8.63744 1.46255C8.56652 1.75557 8.42742 2.02772 8.23146 2.25683C8.03549 2.48595 7.7882 2.66556 7.50971 2.78105C7.23122 2.89654 6.9294 2.94465 6.6288 2.92145C6.3282 2.89826 6.03733 2.80443 5.77985 2.64758C4.0648 1.60255 2.10224 3.56511 3.14727 5.28017C3.82229 6.3877 3.22352 7.83274 1.96348 8.139C0.0121723 8.61277 0.0121723 11.3891 1.96348 11.8616C2.25659 11.9326 2.52878 12.0719 2.7579 12.268C2.98701 12.4641 3.16657 12.7115 3.28195 12.9902C3.39733 13.2688 3.44527 13.5708 3.42187 13.8715C3.39846 14.1721 3.30438 14.463 3.14727 14.7205C2.10224 16.4355 4.0648 18.3981 5.77985 17.353C6.03728 17.1959 6.32818 17.1019 6.62886 17.0784C6.92954 17.055 7.23149 17.103 7.51013 17.2184C7.78877 17.3337 8.03623 17.5133 8.23234 17.7424C8.42845 17.9715 8.56768 18.2437 8.63869 18.5368C9.11246 20.4881 11.8888 20.4881 12.3613 18.5368C12.4326 18.2439 12.5719 17.9719 12.7681 17.7429C12.9642 17.514 13.2116 17.3345 13.4902 17.2192C13.7688 17.1038 14.0706 17.0558 14.3712 17.0791C14.6718 17.1024 14.9627 17.1962 15.2201 17.353C16.9352 18.3981 18.8978 16.4355 17.8527 14.7205C17.6959 14.463 17.602 14.1721 17.5788 13.8715C17.5555 13.5709 17.6035 13.2691 17.7189 12.9905C17.8342 12.712 18.0136 12.4645 18.2426 12.2684C18.4716 12.0722 18.7436 11.9329 19.0365 11.8616C20.9878 11.3879 20.9878 8.61152 19.0365 8.139C18.7434 8.068 18.4712 7.92877 18.2421 7.73265C18.013 7.53654 17.8334 7.28909 17.718 7.01044C17.6027 6.7318 17.5547 6.42985 17.5781 6.12917C17.6015 5.8285 17.6956 5.5376 17.8527 5.28017C18.8978 3.56511 16.9352 1.60255 15.2201 2.64758C14.9627 2.80469 14.6718 2.89877 14.3711 2.92218C14.0705 2.94558 13.7685 2.89764 13.4899 2.78226C13.2112 2.66688 12.9638 2.48732 12.7677 2.25821C12.5715 2.0291 12.4323 1.7569 12.3613 1.4638L12.3626 1.46255ZM10.5 13.7504C11.4946 13.7504 12.4484 13.3553 13.1517 12.652C13.855 11.9488 14.2501 10.9949 14.2501 10.0003C14.2501 9.00572 13.855 8.05186 13.1517 7.34858C12.4484 6.6453 11.4946 6.2502 10.5 6.2502C9.50541 6.2502 8.55155 6.6453 7.84827 7.34858C7.14498 8.05186 6.74988 9.00572 6.74988 10.0003C6.74988 10.9949 7.14498 11.9488 7.84827 12.652C8.55155 13.3553 9.50541 13.7504 10.5 13.7504V13.7504Z" fill="#AAB2C8"/>
</svg>
