<svg width="31" height="30" viewBox="0 0 31 30" fill="none" xmlns="http://www.w3.org/2000/svg">
<path d="M15.1096 0.0164819C13.5744 0.115228 12.3768 0.343285 11.0221 0.794695C9.98147 1.14031 8.7135 1.74689 7.82053 2.32526C7.60725 2.46162 7.60256 2.46162 8.04319 2.41225C8.49084 2.36053 9.56662 2.34172 10.0119 2.37463C11.5143 2.48749 12.7377 2.82134 14.0783 3.482C14.6619 3.77118 15.201 4.09564 16.1526 4.73278C16.6002 5.03137 16.9963 5.27824 17.1604 5.35817C17.4135 5.48278 17.4393 5.49219 17.6057 5.49219C17.7768 5.49219 17.7862 5.48984 17.9666 5.37463C18.0697 5.3088 18.2643 5.15128 18.3979 5.02432C18.8362 4.60112 19.108 4.11209 19.2369 3.50551C19.2955 3.22808 19.2979 2.6309 19.2393 2.35347C19.0893 1.63874 18.7072 0.916952 18.1401 0.277454L18.0393 0.164601L17.7697 0.129334C17.1908 0.0540996 16.7197 0.0235353 16.0002 0.0164819C15.5877 0.0117798 15.1869 0.0117798 15.1096 0.0164819Z" fill="black"/>
<path d="M18.7064 0.293344C18.7064 0.300398 18.758 0.382687 18.8189 0.47673C19.3064 1.20557 19.6345 1.98613 19.74 2.66795C19.7822 2.93363 19.7751 3.42501 19.7283 3.68833C19.5923 4.45479 19.1517 5.21184 18.3548 6.04648C18.2119 6.1993 18.097 6.33096 18.1017 6.34272C18.1064 6.35682 20.1126 8.2424 20.3142 8.42109C20.3634 8.46341 20.3681 8.46106 21.0173 7.94146C23.5744 5.90071 24.5165 5.24475 25.8619 4.56764C26.1033 4.44538 26.3001 4.33253 26.3001 4.31607C26.3001 4.26435 25.8009 3.79648 25.3392 3.41795C23.4384 1.85447 21.179 0.77767 18.7837 0.293344C18.7415 0.28394 18.7064 0.28394 18.7064 0.293344Z" fill="black"/>
<path d="M8.11519 2.68056C7.74253 2.71583 7.51753 2.7511 7.25972 2.81223C7.00894 2.871 6.99488 2.87806 6.76753 3.05204C3.67378 5.40078 1.5855 8.91097 1.00191 12.7386C0.933939 13.1947 0.912845 13.4039 0.943314 13.3404C0.955033 13.3146 0.999564 13.2017 1.0441 13.0912C1.52925 11.8616 2.89097 10.8694 5.1855 10.0748C6.44175 9.63746 7.63472 9.34122 10.6535 8.70878C13.391 8.13746 14.2652 7.91411 15.1464 7.56379C15.8847 7.26991 16.3933 6.93135 16.6066 6.58809C16.6816 6.46818 16.7636 6.23072 16.7636 6.13198C16.7636 5.84749 16.1121 5.19154 15.3691 4.72837C13.9511 3.84906 12.1605 3.15314 10.5105 2.84514C9.62925 2.67821 8.75035 2.61944 8.11519 2.68056Z" fill="black"/>
<path d="M26.3014 5.02046C24.5412 6.15604 22.5678 7.61137 21.2318 8.76106C21.0373 8.92798 20.9365 9.02908 20.9459 9.05259C20.9693 9.11842 22.8678 11.5001 22.8983 11.5001C22.9147 11.5024 23.0623 11.4343 23.2287 11.352C24.1873 10.8676 25.1647 10.562 26.0389 10.4656C26.3717 10.4303 27.0303 10.4491 27.3326 10.5032C28.5772 10.7266 29.6061 11.4742 30.4943 12.8073C30.6373 13.0236 30.7076 13.1129 30.6983 13.0659C30.6912 13.0259 30.6678 12.8849 30.649 12.7485C30.4404 11.3096 29.967 9.80965 29.2897 8.43425C28.8092 7.4562 28.3193 6.66623 27.6865 5.84805C27.3303 5.38723 26.7795 4.75479 26.735 4.75479C26.7233 4.75714 26.5264 4.87469 26.3014 5.02046Z" fill="black"/>
<path d="M17.5951 6.81923C17.5623 6.87095 17.0912 7.23302 16.8451 7.39289C15.91 8.00653 14.717 8.48615 13.0717 8.90935C12.3334 9.09979 11.7006 9.23851 10.0107 9.57941C7.55918 10.0755 6.63574 10.2965 5.57168 10.6421C3.29355 11.3827 1.83574 12.4101 1.00839 13.8584C0.865426 14.1076 0.860739 14.1217 0.844332 14.3286C0.820895 14.6601 0.823239 15.349 0.84902 15.8239C0.991989 18.3819 1.73496 20.7706 3.06855 22.9407C3.49746 23.639 4.3248 24.7487 4.39277 24.7181C4.40918 24.7111 4.62949 24.4501 4.88027 24.1374C9.18574 18.7887 13.8756 13.9548 19.0904 9.49713C19.4467 9.19383 19.7373 8.93286 19.7396 8.92111C19.7396 8.90465 17.6373 6.79807 17.6139 6.79336C17.6115 6.79336 17.6021 6.80512 17.5951 6.81923Z" fill="black"/>
<path d="M19.8688 9.9775C15.4906 13.2996 11.2461 17.5151 5.97031 23.7831C4.99297 24.9469 4.78906 25.1915 4.78906 25.2079C4.78906 25.2173 4.97188 25.4078 5.19219 25.6335C7.52188 27.9799 10.5195 29.4869 13.7422 29.9289C14.3914 30.0183 14.3188 30.0206 14.593 29.8866C15.3359 29.5198 15.9852 28.8991 16.5219 28.0433C16.9906 27.298 17.4992 26.0543 17.8203 24.8647C18.0523 24.0112 18.2563 23.1201 18.5 21.914C18.5258 21.7918 18.6406 21.2205 18.7555 20.6444C19.25 18.1922 19.475 17.2636 19.8711 16.048C19.9555 15.7918 20.2063 15.1241 20.3094 14.8842C20.8555 13.6288 21.5164 12.6977 22.3086 12.0747C22.3742 12.023 22.4305 11.9806 22.4352 11.9759C22.4492 11.9665 20.4898 9.55901 20.4617 9.55431C20.4453 9.5496 20.1805 9.74004 19.8688 9.9775Z" fill="black"/>
<path d="M25.6254 10.9756C25.5808 10.9803 25.4308 11.0062 25.2926 11.0297C24.6293 11.1543 24.1066 11.4294 23.7762 11.829C23.6332 12.0007 23.6238 12.0783 23.7176 12.3181C23.8207 12.579 23.9098 12.7295 24.5918 13.804C25.098 14.5986 25.4168 15.1253 25.7074 15.6378C27.348 18.5367 27.948 21.1464 27.5332 23.5845C27.4746 23.9254 27.3457 24.4709 27.2801 24.659C27.2613 24.7154 27.2519 24.7601 27.2613 24.7577C27.2824 24.7577 27.6808 24.2546 27.9035 23.9489C29.4691 21.8024 30.4183 19.3949 30.723 16.8016C30.8168 15.9858 30.8519 14.9889 30.8074 14.2883L30.7793 13.8439L30.6832 13.6535C29.9613 12.2099 28.4754 11.2107 26.7269 10.9921C26.4879 10.9615 25.8433 10.9521 25.6254 10.9756Z" fill="black"/>
<path d="M22.5156 12.812C21.6672 13.12 20.9969 14.1333 20.4531 15.9295C20.1625 16.8935 19.9469 17.8057 19.4805 20.0674C18.9109 22.8276 18.6789 23.8198 18.3297 24.993C17.8281 26.6834 17.2352 27.9859 16.5578 28.8911C16.3188 29.2109 15.9391 29.6153 15.6719 29.8316L15.4844 29.9844L16.1992 29.9703C18.4352 29.9279 20.5563 29.3942 22.5859 28.3668C23.9359 27.6827 25.0492 26.8927 26.1883 25.8135C26.5258 25.4914 26.5328 25.482 26.6523 25.2375C26.875 24.7814 27.0227 24.2524 27.1117 23.6058C27.1633 23.2461 27.1703 22.261 27.1258 21.819C26.9898 20.4671 26.6125 19.0118 26.0195 17.54C25.2602 15.6591 24.2289 13.9405 23.3523 13.0941C23.0992 12.8472 23.0922 12.8425 22.9305 12.8049C22.7219 12.7579 22.6609 12.7579 22.5156 12.812Z" fill="black"/>
</svg>
