<svg width="59" height="50" viewBox="0 0 59 50" fill="none" xmlns="http://www.w3.org/2000/svg">
<path d="M3 42.2935V19.6878C2.99985 18.8545 3.23983 18.034 3.69863 17.2992C4.15743 16.5644 4.82088 15.938 5.6301 15.4755L26.3163 3.66382C27.2875 3.10873 28.4289 2.8125 29.5965 2.8125C30.7641 2.8125 31.9055 3.10873 32.8767 3.66382L53.5629 15.4755C54.3721 15.938 55.0356 16.5644 55.4944 17.2992C55.9532 18.034 56.1931 18.8545 56.193 19.6878V42.2935M3 42.2935C3 43.6362 3.62269 44.924 4.7311 45.8735C5.8395 46.8229 7.34282 47.3564 8.91033 47.3564H50.2827C51.8502 47.3564 53.3535 46.8229 54.4619 45.8735C55.5703 44.924 56.193 43.6362 56.193 42.2935M3 42.2935L22.9474 30.902M56.193 42.2935L36.2456 30.902M22.9474 30.902L3 19.5106M22.9474 30.902L26.3163 32.8259C27.2875 33.381 28.4289 33.6772 29.5965 33.6772C30.7641 33.6772 31.9055 33.381 32.8767 32.8259L36.2456 30.902M36.2456 30.902L56.193 19.5106" stroke="#3F72AF" stroke-width="5" stroke-linecap="round" stroke-linejoin="round"/>
</svg>
