<svg width="58" height="50" viewBox="0 0 58 50" fill="none" xmlns="http://www.w3.org/2000/svg">
<path d="M29 8.38048V2.8125M29 8.38048C27.2761 8.38048 25.6228 8.96711 24.4038 10.0113C23.1848 11.0555 22.5 12.4717 22.5 13.9485C22.5 15.4252 23.1848 16.8414 24.4038 17.8856C25.6228 18.9298 27.2761 19.5164 29 19.5164M29 8.38048C30.7239 8.38048 32.3772 8.96711 33.5962 10.0113C34.8152 11.0555 35.5 12.4717 35.5 13.9485C35.5 15.4252 34.8152 16.8414 33.5962 17.8856C32.3772 18.9298 30.7239 19.5164 29 19.5164M29 19.5164V47.3564M9.5 41.7884C11.2239 41.7884 12.8772 41.2017 14.0962 40.1575C15.3152 39.1133 16 37.6971 16 36.2204C16 34.7437 15.3152 33.3274 14.0962 32.2832C12.8772 31.239 11.2239 30.6524 9.5 30.6524M9.5 41.7884C7.77609 41.7884 6.12279 41.2017 4.90381 40.1575C3.68482 39.1133 3 37.6971 3 36.2204C3 34.7437 3.68482 33.3274 4.90381 32.2832C6.12279 31.239 7.77609 30.6524 9.5 30.6524M9.5 41.7884V47.3564M9.5 30.6524V2.8125M48.5 41.7884C50.2239 41.7884 51.8772 41.2017 53.0962 40.1575C54.3152 39.1133 55 37.6971 55 36.2204C55 34.7437 54.3152 33.3274 53.0962 32.2832C51.8772 31.239 50.2239 30.6524 48.5 30.6524M48.5 41.7884C46.7761 41.7884 45.1228 41.2017 43.9038 40.1575C42.6848 39.1133 42 37.6971 42 36.2204C42 34.7437 42.6848 33.3274 43.9038 32.2832C45.1228 31.239 46.7761 30.6524 48.5 30.6524M48.5 41.7884V47.3564M48.5 30.6524V2.8125" stroke="#3F72AF" stroke-width="5" stroke-linecap="round" stroke-linejoin="round"/>
</svg>
