<svg width="58" height="50" viewBox="0 0 58 50" fill="none" xmlns="http://www.w3.org/2000/svg">
<path d="M17.4444 12.7111V2.8125M40.5556 12.7111V2.8125M14.5556 22.6098H43.4444M8.77778 47.3564H49.2222C50.7546 47.3564 52.2242 46.8349 53.3077 45.9067C54.3913 44.9786 55 43.7197 55 42.407V12.7111C55 11.3985 54.3913 10.1396 53.3077 9.21144C52.2242 8.28326 50.7546 7.76182 49.2222 7.76182H8.77778C7.24542 7.76182 5.77582 8.28326 4.69227 9.21144C3.60873 10.1396 3 11.3985 3 12.7111V42.407C3 43.7197 3.60873 44.9786 4.69227 45.9067C5.77582 46.8349 7.24542 47.3564 8.77778 47.3564Z" stroke="#3F72AF" stroke-width="5" stroke-linecap="round" stroke-linejoin="round"/>
</svg>
