<svg width="15" height="20" viewBox="0 0 15 20" fill="none" xmlns="http://www.w3.org/2000/svg">
<path d="M7.39216 3.03297C4.98845 3.03297 3.03281 4.98853 3.03281 7.39223C3.03281 9.79594 4.98845 11.7515 7.39216 11.7515C9.79586 11.7515 11.7515 9.79594 11.7515 7.39223C11.7515 4.98853 9.79586 3.03297 7.39216 3.03297ZM7.39216 10.5789C5.63499 10.5789 4.20535 9.14932 4.20535 7.39216C4.20535 5.63499 5.63499 4.20551 7.39216 4.20551C9.14932 4.20551 10.579 5.63507 10.579 7.39223C10.579 9.1494 9.1494 10.5789 7.39216 10.5789Z" fill="#3F72AF"/>
<path d="M7.39216 0C3.3161 0 0 3.3161 0 7.39216C0 9.74286 1.97143 13.2451 3.14655 15.1234C3.91972 16.3592 4.75058 17.5353 5.486 18.4351C6.66643 19.8792 7.08894 20 7.39223 20C7.70006 20 8.09896 19.8791 9.27572 18.4342C10.0128 17.5291 10.844 16.3536 11.6164 15.1243C12.7996 13.2414 14.7844 9.73293 14.7844 7.39208C14.7844 3.3161 11.4683 0 7.39216 0ZM10.8035 14.2114C9.28737 16.6724 7.89541 18.3354 7.3852 18.7599C6.87233 18.3484 5.50296 16.725 3.96561 14.2191C2.19062 11.3257 1.17262 8.83735 1.17262 7.39216C1.17254 3.96264 3.96263 1.17254 7.39216 1.17254C10.8217 1.17254 13.6118 3.96264 13.6118 7.39216C13.6118 8.82906 12.5882 11.3145 10.8035 14.2114Z" fill="#3F72AF"/>
</svg>
