<svg width="231" height="246" viewBox="0 0 231 246" fill="none" xmlns="http://www.w3.org/2000/svg">
<path fill-rule="evenodd" clip-rule="evenodd" d="M90.302 225.854C93.3347 225.195 96.4706 224.849 99.6803 224.849C113.359 224.849 125.697 231.129 134.419 241.197C130.764 242.338 126.904 242.949 122.915 242.949C109.732 242.949 97.9727 236.279 90.302 225.854Z" fill="#3F72AF"/>
<path fill-rule="evenodd" clip-rule="evenodd" d="M172.176 227.454C170.204 228.669 168.116 229.751 165.919 230.684C152.171 236.52 137.183 235.213 125.09 228.435C127.062 227.22 129.15 226.138 131.347 225.205C145.095 219.369 160.084 220.676 172.176 227.454Z" fill="#3F72AF"/>
<path fill-rule="evenodd" clip-rule="evenodd" d="M224.237 165.336C223.473 165.549 222.709 165.779 221.947 166.027C206.741 170.967 195.149 181.89 188.932 195.343C192.575 195.334 196.28 194.764 199.931 193.578C213.105 189.298 222.108 178.116 224.237 165.336Z" fill="#3F72AF"/>
<path fill-rule="evenodd" clip-rule="evenodd" d="M214.319 119.413C212.75 121.117 211.289 122.96 209.955 124.939C201.603 137.321 200.026 152.284 204.372 165.447C205.941 163.743 207.402 161.9 208.736 159.921C217.088 147.539 218.665 132.577 214.319 119.413Z" fill="#3F72AF"/>
<path fill-rule="evenodd" clip-rule="evenodd" d="M188.537 147.442C187.208 148.833 185.983 150.349 184.878 151.988C177.961 162.243 177.251 175.037 181.776 186.564C183.105 185.173 184.33 183.656 185.435 182.017C192.352 171.763 193.062 158.968 188.537 147.442Z" fill="#3F72AF"/>
<path fill-rule="evenodd" clip-rule="evenodd" d="M176.172 171.981C174.426 172.794 172.735 173.765 171.116 174.899C160.983 181.994 155.878 193.888 156.193 206.587C157.939 205.774 159.63 204.803 161.249 203.669C171.382 196.574 176.487 184.681 176.172 171.981Z" fill="#3F72AF"/>
<path fill-rule="evenodd" clip-rule="evenodd" d="M203.387 201.351C202.184 201.04 200.958 200.785 199.708 200.587C184.811 198.227 170.417 204.704 161.215 216.343C163.328 217.187 165.541 217.803 167.843 218.167C181.162 220.277 194.29 213.465 203.387 201.351Z" fill="#3F72AF"/>
<path fill-rule="evenodd" clip-rule="evenodd" d="M129.187 199.987C127.45 199.559 125.664 199.276 123.835 199.148C111.712 198.3 100.465 204.486 92.9655 214.736C94.829 215.234 96.7532 215.56 98.7275 215.698C110.691 216.534 121.795 210.298 129.187 199.987Z" fill="#3F72AF"/>
<path fill-rule="evenodd" clip-rule="evenodd" d="M153.575 191.023C152.55 191.139 151.522 191.306 150.494 191.525C138.239 194.13 129.004 203.437 125.333 215.203C127.223 215.229 129.123 215.047 131.016 214.645C141.973 212.316 150.126 203.125 153.575 191.023Z" fill="#3F72AF"/>
<path d="M16.6131 136.777C16.6131 136.777 26.7747 205.445 96.0586 219.302C171.193 229.463 199.215 170.033 199.215 170.033" stroke="#3F72AF" stroke-width="3" stroke-linecap="round"/>
<path fill-rule="evenodd" clip-rule="evenodd" d="M141.272 20.7489C139.027 21.0531 136.74 21.2098 134.42 21.2098C119.825 21.2098 106.553 15.01 96.6837 4.88574C100.362 3.72902 104.247 3.10938 108.265 3.10938C121.676 3.10938 133.614 10.0125 141.272 20.7489Z" fill="#3F72AF"/>
<path fill-rule="evenodd" clip-rule="evenodd" d="M58.6589 17.8288C60.6308 16.6141 62.7187 15.5319 64.9159 14.5993C78.6638 8.76362 93.6523 10.0705 105.745 16.8486C103.773 18.0634 101.685 19.1455 99.4878 20.0782C85.7398 25.9138 70.7513 24.6069 58.6589 17.8288Z" fill="#3F72AF"/>
<path fill-rule="evenodd" clip-rule="evenodd" d="M6.27973 80.411C7.04444 80.1981 7.80809 79.968 8.57027 79.7203C23.7765 74.7795 35.3677 63.857 41.5851 50.4042C37.9415 50.4135 34.2374 50.9826 30.5857 52.1691C17.4121 56.4494 8.40939 67.6312 6.27973 80.411Z" fill="#3F72AF"/>
<path fill-rule="evenodd" clip-rule="evenodd" d="M16.7749 127.679C18.3436 125.975 19.8043 124.132 21.139 122.153C29.4907 109.771 31.0677 94.8087 26.7215 81.6451C25.1528 83.349 23.6921 85.1921 22.3574 87.1709C14.0057 99.5527 12.4286 114.515 16.7749 127.679Z" fill="#3F72AF"/>
<path fill-rule="evenodd" clip-rule="evenodd" d="M39.348 99.5133C41.514 97.6368 43.457 95.4632 45.1182 93.0003C51.585 83.4129 52.3886 71.5085 48.3941 60.6769C46.7005 62.3589 45.1488 64.2259 43.7681 66.2728C37.0098 76.2924 35.7858 88.494 39.348 99.5133Z" fill="#3F72AF"/>
<path fill-rule="evenodd" clip-rule="evenodd" d="M54.3822 75.2701C56.399 74.4234 58.3436 73.3574 60.189 72.0652C70.0419 65.1661 74.8026 53.4062 74.0558 40.9989C72.734 41.6992 71.4422 42.4879 70.1877 43.3663C59.6127 50.771 54.1295 62.8418 54.3822 75.2701Z" fill="#3F72AF"/>
<path fill-rule="evenodd" clip-rule="evenodd" d="M76.4849 55.0358C77.5099 54.9191 78.5375 54.7523 79.5653 54.5339C91.8207 51.9289 101.056 42.6212 104.727 30.8553C102.837 30.83 100.937 31.0112 99.0441 31.4136C88.0867 33.7427 79.9335 42.9338 76.4849 55.0358Z" fill="#3F72AF"/>
<path fill-rule="evenodd" clip-rule="evenodd" d="M100.615 46.1577C102.351 46.5854 104.137 46.8689 105.966 46.9968C118.089 47.8446 129.337 41.6587 136.836 31.4085C134.972 30.9106 133.048 30.5851 131.074 30.4471C119.11 29.6105 108.006 35.8467 100.615 46.1577Z" fill="#3F72AF"/>
<path fill-rule="evenodd" clip-rule="evenodd" d="M27.5345 43.9318C28.7368 44.2428 29.9636 44.4987 31.213 44.6966C46.1102 47.0561 60.5044 40.5795 69.7063 28.9401C67.5935 28.0964 65.38 27.4804 63.0787 27.1159C49.7593 25.0063 36.6311 31.8185 27.5345 43.9318Z" fill="#3F72AF"/>
<path d="M31.7016 75.1913C31.7016 75.1913 66.1896 12.374 135.166 26.5387C204.141 40.7034 213.379 109.063 213.379 109.063" stroke="#3F72AF" stroke-width="3" stroke-linecap="round"/>
</svg>
